HIERARCHY
ROOT root
{
	OFFSET	0	13.1	24.9
	CHANNELS 6  Xposition Yposition Zposition Xrotation Yrotation Zrotation
	JOINT spine_1
	{
		OFFSET	0	9.99999	0
		CHANNELS 3  Xrotation Yrotation Zrotation
		JOINT spine_2
		{
			OFFSET	0	112	-10
			CHANNELS 3  Xrotation Yrotation Zrotation
			JOINT spine_3
			{
				OFFSET	0	206.5	19.3
				CHANNELS 3  Xrotation Yrotation Zrotation
				JOINT spine_4
				{
					OFFSET	0	110.4	14.6
					CHANNELS 3  Xrotation Yrotation Zrotation
					JOINT neck_1
					{
						OFFSET	0	71.8	-50.3
						CHANNELS 3  Xrotation Yrotation Zrotation
						JOINT neck_2
						{
							OFFSET	0	86.2	-25.8
							CHANNELS 3  Xrotation Yrotation Zrotation
							JOINT head_ee
							{
								OFFSET	0	179.8	-8.7
								CHANNELS 3  Xrotation Yrotation Zrotation
								End Site
								{
									OFFSET	1	0	0
								}
							}
						}
					}
					JOINT left_clavicle
					{
						OFFSET	-43.2	22.4	-70.8
						CHANNELS 3  Xrotation Yrotation Zrotation
						JOINT left_shoulder
						{
							OFFSET	-93.9	-5.79999	48.7
							CHANNELS 3  Xrotation Yrotation Zrotation
							JOINT left_elbow
							{
								OFFSET	-291.4	-30.8	15.2
								CHANNELS 3  Xrotation Yrotation Zrotation
								JOINT left_lowarm_twist
								{
									OFFSET	-110.7	-3.89999	13.6
									CHANNELS 3  Xrotation Yrotation Zrotation
									JOINT left_hand
									{
										OFFSET	-110.7	-3.89999	13.6
										CHANNELS 3  Xrotation Yrotation Zrotation
										JOINT left_ee
										{
											OFFSET	-80.8	-5.10001	12.1
											CHANNELS 3  Xrotation Yrotation Zrotation
											End Site
											{
												OFFSET	1	0	0
											}
										}
									}
								}
							}
						}
					}
					JOINT right_clavicle
					{
						OFFSET	43.2	22.4	-70.8
						CHANNELS 3  Xrotation Yrotation Zrotation
						JOINT right_shoulder
						{
							OFFSET	93.9	-5.79999	48.7
							CHANNELS 3  Xrotation Yrotation Zrotation
							JOINT right_elbow
							{
								OFFSET	291.4	-30.8	15.2
								CHANNELS 3  Xrotation Yrotation Zrotation
								JOINT right_lowarm_twist
								{
									OFFSET	110.7	-3.89999	13.6
									CHANNELS 3  Xrotation Yrotation Zrotation
									JOINT right_hand
									{
										OFFSET	110.7	-3.89999	13.6
										CHANNELS 3  Xrotation Yrotation Zrotation
										JOINT right_ee
										{
											OFFSET	80.8	-5.10001	12.1
											CHANNELS 3  Xrotation Yrotation Zrotation
											End Site
											{
												OFFSET	1	0	0
											}
										}
									}
								}
							}
						}
					}
				}
			}
		}
	}
	JOINT left_hip
	{
		OFFSET	-82.8	-127.5	0.300001
		CHANNELS 3  Xrotation Yrotation Zrotation
		JOINT left_knee
		{
			OFFSET	-28.2	-396.7	2.2
			CHANNELS 3  Xrotation Yrotation Zrotation
			JOINT left_ankle
			{
				OFFSET	-11.7	-411.3	35.4
				CHANNELS 3  Xrotation Yrotation Zrotation
				JOINT left_toes
				{
					OFFSET	0	-60	-88.6
					CHANNELS 3  Xrotation Yrotation Zrotation
					JOINT left_foot_ee
					{
						OFFSET	-22.5	-16.5	-42.2
						CHANNELS 3  Xrotation Yrotation Zrotation
						End Site
						{
							OFFSET	1	0	0
						}
					}
				}
			}
		}
	}
	JOINT right_hip
	{
		OFFSET	82.8	-127.5	0.300001
		CHANNELS 3  Xrotation Yrotation Zrotation
		JOINT right_knee
		{
			OFFSET	28.2	-396.7	2.2
			CHANNELS 3  Xrotation Yrotation Zrotation
			JOINT right_ankle
			{
				OFFSET	11.7	-411.3	35.4
				CHANNELS 3  Xrotation Yrotation Zrotation
				JOINT right_toes
				{
					OFFSET	0	-60	-88.6
					CHANNELS 3  Xrotation Yrotation Zrotation
					JOINT right_foot_ee
					{
						OFFSET	22.5	-16.5	-42.2
						CHANNELS 3  Xrotation Yrotation Zrotation
						End Site
						{
							OFFSET	1	0	0
						}
					}
				}
			}
		}
	}
}
MOTION
Frames: 12
Frame Time: 0.02
1372.05 701.618 -1475.22 -12.1564350566 16.7411226567 3.32854265089 2.65443 0.0660538 1.53162 2.65573 -0.0315297 1.53272 2.65458 -0.283563 1.5066 2.65141 -0.0420939 1.53247 -1.09165 16.276 -5.96943 -0.0470924 34.0005 -4.67862 -0.0 0.0 -0.0 -2.11714 18.8757 -0.970013 0.590417 -22.028 54.4869 3.77912 -61.8736 2.26558 -16.3264 -0.852049 1.89874 -1.34733 0.656364 -8.73909 -0.0 0.0 -0.0 8.69368 8.80254 -17.0258 -26.9181 20.0595 -65.4863 0.281469 7.93784 -0.0195289 -23.6723 1.40465 -2.6594 3.07825 0.398403 -20.8905 0.0 0.0 0.0 -8.39331 14.6708 7.34856 -2.38933 0.090978 0.35537 40.4908 5.18687 -4.90007 -18.0689 0.0 0.0 -0.0 0.0 -0.0 42.7722 8.92854 -9.07447 3.3092 0.15035 0.48543 7.88713 -18.7431 1.14907 -7.08583 0.0 0.0 0.0 0.0 0.0 
1364.39678732 694.64 -1499.979718 -11.8607673028 18.3373325286 3.90261227432 2.35743 0.157974 1.46028 2.35861 0.0647429 1.46737 2.36011 -0.185298 1.45707 2.35715 0.0471184 1.46804 0.204876 16.0742 -7.35023 1.58013 34.5809 -6.67743 -0.0 0.0 -0.0 -2.20757 19.4376 -1.0084 0.140435 -21.8118 54.8228 3.78476 -61.909 2.27055 -15.7654 -0.813945 1.83787 -1.04349 1.43018 -6.35138 -0.0 0.0 -0.0 8.74405 8.66374 -17.1361 -25.5268 21.4146 -66.2132 0.282843 7.97609 -0.019719 -23.7796 1.41344 -2.66998 3.28328 -1.87579 -23.2709 0.0 0.0 0.0 -10.167 14.1163 7.01326 -3.83316 0.138735 0.571805 41.333 5.76677 -4.97191 -16.9768 0.0 0.0 -0.0 0.0 -0.0 42.316 8.62219 -9.84006 -1.43565 -0.0564452 -0.213085 3.47247 -17.6692 0.510535 -4.1586 0.0 0.0 0.0 0.0 0.0 
1350.46439654 694.696 -1525.34854499 -11.2491471053 19.7106129078 3.87043932377 2.09308 0.246762 1.57465 2.09445 0.146076 1.58715 2.09844 -0.132714 1.58833 2.09494 0.119766 1.58935 1.07032 15.9277 -8.2605 2.68675 34.9537 -8.02852 -0.0 0.0 -0.0 -2.27276 19.847 -1.03351 -0.20667 -21.6625 55.0766 3.72908 -61.5553 2.22151 -15.3708 -0.787496 1.79482 -0.81733 2.01397 -4.5842 -0.0 0.0 -0.0 8.79483 8.54732 -17.2467 -24.4366 22.3883 -66.8179 0.285732 8.05648 -0.0201219 -23.8573 1.41982 -2.67763 3.42813 -3.47638 -24.9416 0.0 0.0 0.0 -11.4029 13.7491 6.7 -4.87547 0.16981 0.728746 41.8179 6.22869 -5.01317 -16.2115 0.0 0.0 -0.0 0.0 -0.0 41.9825 8.4247 -10.3978 -4.76895 -0.166766 -0.712681 0.311057 -16.7327 0.0459718 -2.11083 0.0 0.0 0.0 0.0 0.0 
1340.68404358 688.653 -1553.87250904 -9.49616479482 21.5572093993 4.06776428646 1.70381 0.204971 1.43412 1.70495 0.113309 1.44426 1.70786 -0.149912 1.44092 1.70498 0.0795105 1.44651 1.8627 15.7642 -8.98188 3.69271 35.1623 -9.1549 -0.0 0.0 -0.0 -2.69985 18.5208 -1.91392 -1.91528 -21.7301 55.0184 3.20596 -57.7899 1.76974 -13.3178 -0.654753 1.56808 -0.349831 2.51342 -1.26304 -0.0 0.0 -0.0 9.05511 8.57582 -17.8042 -23.1297 24.4063 -66.5828 0.335096 9.42516 -0.027624 -23.9326 1.42601 -2.68503 3.21437 -6.7682 -24.5843 0.0 0.0 0.0 -10.9973 11.7676 4.84838 -8.18502 0.249468 1.23032 41.1502 9.18276 -4.97017 -14.8654 0.0 0.0 -0.0 0.0 -0.0 41.9469 8.58236 -10.5944 -12.1864 -0.306904 -1.84148 3.32899 -13.5739 0.485126 -0.964655 0.0 0.0 0.0 0.0 0.0 
1328.27227234 694.258 -1576.62589115 -9.38209902357 22.6611547251 4.1442014426 1.52202 0.240567 1.65577 1.52354 0.134734 1.66772 1.52762 -0.174521 1.66403 1.52377 0.090433 1.67071 2.16495 15.4986 -9.32226 4.05535 34.9416 -9.66497 -0.0 0.0 -0.0 -2.85805 17.6391 -2.32293 -3.55283 -22.1302 56.0417 2.90069 -55.1539 1.51519 -12.18 -0.584726 1.44044 -0.0307443 2.85115 0.993234 -0.0 0.0 -0.0 9.46451 8.73938 -18.684 -21.7375 25.9846 -66.6596 0.376672 10.5696 -0.0348421 -23.9833 1.43018 -2.69001 3.06999 -9.05325 -24.3329 0.0 0.0 0.0 -10.769 10.3517 2.87436 -13.9311 0.318561 2.10892 41.5646 11.4374 -5.02423 -13.921 0.0 0.0 -0.0 0.0 -0.0 42.1767 8.89841 -10.723 -16.3494 -0.321242 -2.47992 6.24148 -9.49232 0.898334 -0.0502194 0.0 0.0 0.0 0.0 0.0 
1313.19183077 696.173 -1605.81085234 -8.80414843481 23.5539901458 4.20149198759 1.35237 0.363284 1.99252 1.35455 0.235785 2.01158 1.36321 -0.144259 2.02021 1.35756 0.176539 2.01764 2.35452 15.2991 -9.54719 4.27921 34.7571 -9.99853 -0.0 0.0 -0.0 -2.97044 17.2485 -2.57229 -5.03408 -22.3539 57.0346 2.68813 -53.0854 1.34294 -11.383 -0.537187 1.35021 0.190749 3.11745 2.5704 -0.0 0.0 -0.0 9.9039 8.96708 -19.6344 -20.1992 27.2963 -66.9404 0.411015 11.5086 -0.0414183 -24.0408 1.43492 -2.69566 2.96473 -10.6696 -24.1191 0.0 0.0 0.0 -10.4026 9.24079 1.56362 -17.8706 0.314906 2.71322 41.7033 13.0332 -5.0543 -13.2759 0.0 0.0 -0.0 0.0 -0.0 42.2371 9.14367 -10.777 -19.3026 -0.303284 -2.93263 8.25341 -6.61801 1.18039 0.598403 -0.0 -0.0 0.0 0.0 0.0 
1306.57092471 701.712 -1626.13436909 -8.30384737365 23.5627709837 3.88345470218 1.23812 0.406439 1.94921 1.24019 0.281607 1.97111 1.25035 -0.095569 1.98882 1.2449 0.219665 1.97897 1.87336 15.0883 -9.48641 3.67773 34.3861 -9.75564 -0.0 0.0 -0.0 -3.12587 17.2846 -2.80695 -6.28452 -21.7488 57.4993 2.31954 -48.96 1.05621 -9.98109 -0.456648 1.18997 0.369934 3.06467 3.73587 -0.0 0.0 -0.0 10.1961 8.89004 -20.2717 -19.3973 28.8896 -66.885 0.478649 13.3392 -0.0559713 -24.0098 1.43236 -2.69261 2.96999 -11.8392 -24.5315 0.0 0.0 0.0 -6.33098 8.54543 -0.789658 -25.7726 0.182636 3.9176 40.7535 14.2726 -4.98886 -13.1641 0.0 0.0 -0.0 0.0 -0.0 39.8399 10.5684 -11.3078 -22.6509 -0.254742 -3.44403 9.88925 -4.48811 1.40869 3.1282 -0.0 -0.0 0.0 0.0 0.0 
1311.91416468 701.712 -1628.34196907 -8.18384644261 21.5699088123 3.57079899575 1.23812 0.406439 1.94921 1.24019 0.281607 1.97111 1.25035 -0.095569 1.98882 1.2449 0.219665 1.97897 1.87336 15.0883 -9.48641 3.67773 34.3861 -9.75564 -0.0 0.0 -0.0 -3.12587 17.2846 -2.80695 -6.28452 -21.7488 57.4993 2.31954 -48.96 1.05621 -9.98109 -0.456648 1.18997 0.369934 3.06467 3.73587 -0.0 0.0 -0.0 10.1961 8.89004 -20.2717 -19.3973 28.8896 -66.885 0.478649 13.3392 -0.0559713 -24.0098 1.43236 -2.69261 2.96999 -11.8392 -24.5315 0.0 0.0 0.0 -6.33098 8.54543 -0.789658 -25.7726 0.182636 3.9176 40.7535 14.2726 -4.98886 -13.1641 0.0 0.0 -0.0 0.0 -0.0 39.8399 10.5684 -11.3078 -22.6509 -0.254742 -3.44403 9.88925 -4.48811 1.40869 3.1282 -0.0 -0.0 0.0 0.0 0.0 
1304.9759412 704.136 -1656.25457194 -6.84158206804 22.2346697557 3.35180448953 0.969834 0.456683 1.91947 0.971822 0.33364 1.94462 0.983796 -0.0486195 1.97243 0.978464 0.263438 1.95537 0.567735 14.5591 -9.84594 2.15252 33.8526 -9.7239 -0.0 0.0 -0.0 -3.42543 17.7624 -3.17444 -8.0541 -21.6764 58.0811 2.00586 -44.8123 0.82708 -9.08277 -0.407115 1.08628 0.609644 3.06194 5.32595 -0.0 0.0 -0.0 10.6147 8.78878 -21.1888 -18.2474 30.1285 -66.7285 0.534266 14.8242 -0.0695042 -23.9897 1.43071 -2.69064 2.92903 -12.6461 -24.4961 0.0 0.0 0.0 -3.43478 8.97565 -2.23288 -31.2679 -0.00658398 4.73943 40.0574 14.9941 -4.93771 -13.1245 0.0 0.0 -0.0 0.0 -0.0 38.291 11.6589 -11.4314 -25.0889 -0.200635 -3.81422 13.1109 -1.55421 1.8532 4.76153 -0.0 -0.0 0.0 0.0 0.0 
1284.5037862 710.25 -1676.97193444 -6.02298684373 23.269758139 2.5308557822 0.812265 0.411767 2.19844 0.814914 0.271075 2.22017 0.826301 -0.169477 2.23022 0.819407 0.184782 2.229 0.815877 14.643 -10.1438 2.49856 34.2221 -10.1554 -0.0 0.0 -0.0 -2.92748 18.007 -2.359 -8.91268 -21.7101 58.8266 1.63149 -38.9419 0.576846 -8.63528 -0.383051 1.03434 0.63834 3.88983 5.85078 -0.0 0.0 -0.0 10.6654 8.57874 -21.2998 -16.2026 31.4671 -67.1375 0.59282 16.3658 -0.0852471 -24.5799 1.4796 -2.74834 3.35014 -13.229 -27.6695 0.0 0.0 0.0 0.458202 10.5721 -4.6607 -38.0353 -0.346532 5.72127 39.4986 15.0034 -4.88745 -13.5819 0.0 0.0 -0.0 0.0 -0.0 33.1243 14.4909 -9.22608 -27.0988 -0.144209 -4.1175 17.9472 0.952971 2.49884 5.95905 -0.0 -0.0 0.0 0.0 0.0 
1264.52411272 715.494 -1701.28926829 -5.12589857543 25.164098341 1.37666248745 0.639339 0.439318 2.59355 0.64304 0.273452 2.61623 0.656885 -0.252603 2.61832 0.647356 0.163936 2.62536 0.971385 14.7013 -10.3481 2.72122 34.478 -10.4486 -0.0 0.0 -0.0 -2.59801 18.5581 -1.75253 -10.0155 -21.6688 59.6258 1.39436 -34.6319 0.43474 -8.32128 -0.366409 0.997794 0.662994 4.49067 6.25538 -0.0 0.0 -0.0 10.722 8.43036 -21.4238 -14.4342 32.4489 -67.2865 0.640527 17.6043 -0.0991842 -24.9904 1.51396 -2.78818 3.63544 -13.6222 -29.8654 0.0 0.0 0.0 3.15814 11.4844 -6.48661 -43.1281 -0.677674 6.43054 39.0813 15.0135 -4.84952 -13.9127 0.0 0.0 -0.0 0.0 -0.0 29.4628 16.3622 -7.55963 -28.4866 -0.0990501 -4.3257 21.2052 2.71712 2.92085 6.74079 -0.0 -0.0 0.0 0.0 0.0 
1251.65784119 732.301 -1720.13377543 -3.8803519502 26.1557292217 -0.0482971451604 0.350647 0.48502 2.9095 0.355307 0.29898 2.93444 0.372693 -0.305505 2.93377 0.360719 0.161456 2.9452 0.244747 14.6862 -9.86473 1.80128 34.1149 -9.62628 -0.0 0.0 -0.0 -2.91827 19.6365 -2.02933 -11.0506 -21.8296 60.6015 1.24482 -31.6586 0.352948 -7.73052 -0.335643 0.928785 0.780166 4.78753 7.15008 -0.0 0.0 -0.0 10.7548 8.41773 -21.4958 -13.0327 33.1989 -66.1146 0.733719 19.9743 -0.129207 -25.5285 1.55943 -2.84002 3.83893 -13.7386 -31.4126 0.0 0.0 0.0 5.16317 12.1471 -7.95395 -47.78 -1.03437 7.05093 38.3118 15.3449 -4.7832 -14.2313 0.0 0.0 -0.0 0.0 -0.0 26.8345 17.0701 -6.09221 -29.0826 -0.0781104 -4.41477 23.4001 3.60243 3.19553 5.99864 -0.0 -0.0 0.0 0.0 0.0 
